<?xml version="1.0" encoding="UTF-8" standalone="no"?><!DOCTYPE svg PUBLIC "-//W3C//DTD SVG 1.1//EN" "http://www.w3.org/Graphics/SVG/1.1/DTD/svg11.dtd"><svg width="100%" height="100%" viewBox="0 0 200 200" version="1.1" xmlns="http://www.w3.org/2000/svg" xmlns:xlink="http://www.w3.org/1999/xlink" xml:space="preserve" xmlns:serif="http://www.serif.com/" style="fill-rule:evenodd;clip-rule:evenodd;stroke-linejoin:round;stroke-miterlimit:2;"><path id="papilon-categories" d="M170.344,103.55c13.345,0.255 25.367,11.822 25.623,25.622l-0.012,38.256c-0.666,6.866 -2.933,6.633 -6.977,6.755c-3.856,0.122 -7.323,-3.155 -7.456,-7.211c0,-12.589 0.233,-25.189 0,-37.778c-0.189,-5.911 -5.4,-11.089 -11.367,-11.2c-12.633,-0.089 -25.277,-0.244 -37.911,0c-5.922,0.178 -11.1,5.4 -11.211,11.356c-0.089,12.644 -0.233,25.278 0,37.922c0.189,5.9 5.4,11.089 11.356,11.211l38.089,0.011c7.322,0.711 9.555,14.111 -0.467,14.434c-20.667,0 -44.944,4.722 -56.889,-8.734c-4.078,-4.611 -6.422,-10.655 -6.533,-16.889c-0.089,-13.711 -1.511,-27.622 0.211,-41.1c1.544,-12.2 12.555,-22.411 25.411,-22.655c12.711,-0.089 25.422,-0.089 38.133,0Zm-102.555,0c13.366,0.255 25.366,11.822 25.622,25.622c0.089,13.489 1.211,27.189 -0.133,40.444c-1.267,12.445 -12.456,23.056 -25.489,23.312c-13.711,0.077 -27.622,1.5 -41.1,-0.212c-12.167,-1.544 -22.411,-12.533 -22.656,-25.411c-0.078,-13.711 -1.511,-27.622 0.2,-41.1c1.556,-12.189 12.645,-22.411 25.411,-22.655c12.723,-0.089 25.434,-0.089 38.145,0Zm-37.778,14.433c-6.044,0.045 -11.422,5.3 -11.533,11.367c-0.078,12.633 -0.245,25.278 0,37.911c0.189,5.911 5.4,11.1 11.355,11.222c12.645,0.067 25.289,0.245 37.922,-0.011c5.912,-0.178 11.1,-5.4 11.212,-11.356c0.088,-12.633 0.233,-25.277 0,-37.922c-0.189,-5.911 -5.4,-11.089 -11.367,-11.2c-12.533,-0.089 -25.056,-0.011 -37.589,-0.011Zm37.778,-111.655c13.366,0.255 25.366,11.833 25.622,25.622c0.089,13.711 1.511,27.611 -0.211,41.1c-1.556,12.211 -12.622,22.422 -25.411,22.655c-13.611,0.089 -27.489,1.356 -40.778,-0.166c-12.344,-1.411 -22.733,-12.567 -22.978,-25.456c-0.078,-13.611 -1.355,-27.489 0.167,-40.778c1.411,-12.344 12.667,-22.733 25.455,-22.977c12.712,-0.078 25.423,-0.078 38.134,0Zm102.555,0c13.378,0.255 25.367,11.822 25.623,25.622c0.088,13.711 1.511,27.611 -0.212,41.1c-1.555,12.211 -12.622,22.422 -25.411,22.655c-13.611,0.089 -27.489,1.356 -40.777,-0.166c-12.3,-1.411 -22.734,-12.4 -22.978,-25.456c-0.089,-13.611 -1.356,-27.489 0.166,-40.778c1.412,-12.322 12.589,-22.733 25.456,-22.977c12.711,-0.078 25.422,-0.078 38.133,0Zm-140.333,14.444c-6.011,0.033 -11.422,5.289 -11.533,11.356c-0.078,12.644 -0.245,25.288 0,37.922c0.189,5.922 5.4,11.1 11.355,11.211c12.645,0.089 25.289,0.233 37.922,0c5.889,-0.189 11.1,-5.378 11.212,-11.356c0.088,-12.644 0.233,-25.289 0,-37.922c-0.189,-5.911 -5.412,-11.1 -11.367,-11.211c-12.522,-0.078 -25.056,0 -37.589,0Zm102.556,0c-6.034,0.033 -11.423,5.267 -11.534,11.356c-0.089,12.644 -0.233,25.288 0,37.922c0.189,5.911 5.4,11.1 11.356,11.211c12.644,0.089 25.289,0.233 37.922,0c5.889,-0.189 11.1,-5.378 11.211,-11.356c0.089,-12.644 0.233,-25.289 0,-37.922c-0.189,-5.911 -5.411,-11.1 -11.355,-11.211c-12.534,-0.078 -25.067,0 -37.6,0Z"/></svg>