<?xml version="1.0" encoding="UTF-8" standalone="no"?><!DOCTYPE svg PUBLIC "-//W3C//DTD SVG 1.1//EN" "http://www.w3.org/Graphics/SVG/1.1/DTD/svg11.dtd"><svg width="100%" height="100%" viewBox="0 0 200 200" version="1.1" xmlns="http://www.w3.org/2000/svg" xmlns:xlink="http://www.w3.org/1999/xlink" xml:space="preserve" xmlns:serif="http://www.serif.com/" style="fill-rule:evenodd;clip-rule:evenodd;stroke-linejoin:round;stroke-miterlimit:2;"><path id="papilon-new" d="M100.225,7.214c6.287,0.187 12.125,4.475 14.137,10.462l15.913,48.975c17.575,0 35.175,-0.837 52.375,0.025c12,0.85 19.362,19.075 8.05,27.475l-41.65,30.263l9.337,28.887c0.875,4.913 -0.825,6.2 -2.225,7.575c-3.887,3.825 -11.325,2.288 -13.425,-3.287c-3.162,-9.713 -6.412,-19.413 -9.475,-29.163c-1.762,-6.062 0.513,-12.925 5.588,-16.687l39.687,-28.838c-16.762,0 -33.812,0.788 -49.937,-0.025c-6.075,-0.425 -11.588,-4.662 -13.538,-10.45l-15.15,-46.65c-5.175,15.938 -9.712,32.4 -15.462,47.488c-2.288,5.65 -7.975,9.562 -14.1,9.637l-49.063,0c13.563,9.85 27.713,19.175 40.375,29.375c4.688,3.938 6.638,10.588 4.813,16.4l-15.15,46.65c13.55,-9.85 26.85,-20.487 40.4,-29.325c5.175,-3.225 12.112,-3.05 17.1,0.5l28.85,20.963c2.625,2.1 3.05,3.487 3.3,5.675c0.662,6.025 -6.888,11.4 -12.85,7.462l-28.213,-20.487c-14.2,10.312 -27.6,21.1 -42.387,30.75c-10.15,6.35 -26.913,-3.938 -22.663,-17.475l15.913,-48.975c-14.213,-10.325 -29.313,-20.313 -42.35,-30.8c-9.275,-7.788 -4.35,-26.825 9.625,-26.963l51.5,0c5.425,-16.712 10.112,-33.837 16.2,-49.8c2.337,-5.75 8.2,-9.712 14.475,-9.637Z"/></svg>