<?xml version="1.0" encoding="UTF-8" standalone="no"?><!DOCTYPE svg PUBLIC "-//W3C//DTD SVG 1.1//EN" "http://www.w3.org/Graphics/SVG/1.1/DTD/svg11.dtd"><svg width="100%" height="100%" viewBox="0 0 200 200" version="1.1" xmlns="http://www.w3.org/2000/svg" xmlns:xlink="http://www.w3.org/1999/xlink" xml:space="preserve" xmlns:serif="http://www.serif.com/" style="fill-rule:evenodd;clip-rule:evenodd;stroke-linejoin:round;stroke-miterlimit:2;"><path d="M114.769,121.956c17.273,0.377 31.899,13.355 43.539,25.038l32.334,32.334c4.266,4.68 1.427,13.338 -5.288,13.648c-1.728,0.08 -3.463,-0.413 -4.89,-1.391c-0.543,-0.372 -0.651,-0.501 -1.136,-0.943c-12.443,-12.443 -24.879,-24.84 -37.276,-37.41c-8.408,-8.487 -18.462,-16.556 -30.886,-15.115c-2.918,0.338 -5.75,1.224 -8.448,2.352c-1.578,0.646 -1.672,0.667 -2.384,0.927c-19.692,7.186 -42.744,4.765 -60.635,-6.408c-26.589,-16.605 -39.825,-52.463 -28.099,-83.282c12.175,-32 50.342,-52.355 85.238,-41.491c24.661,7.677 44.078,30.019 47.881,55.97c1.555,10.613 0.599,21.575 -2.742,31.779c0,0 -2.913,6.324 -8.187,6.063c-4.669,-0.231 -8.508,-5.149 -7.387,-9.847c0.88,-3.689 2.154,-7.39 2.635,-11.241c2.425,-19.388 -6.812,-39.784 -23.047,-50.756c-14.974,-10.12 -35.267,-11.889 -51.877,-4.252c-23.612,10.857 -37.239,40.327 -27.898,66.312c8.163,22.708 32.404,38.061 57.906,34.706c4.64,-0.611 9.167,-1.917 13.489,-3.683c0.361,-0.145 0.36,-0.144 0.722,-0.286c5.251,-2.005 10.851,-3.101 16.436,-3.024Z"/></svg>