<?xml version="1.0" encoding="UTF-8" standalone="no"?><!DOCTYPE svg PUBLIC "-//W3C//DTD SVG 1.1//EN" "http://www.w3.org/Graphics/SVG/1.1/DTD/svg11.dtd"><svg width="100%" height="100%" viewBox="0 0 200 200" version="1.1" xmlns="http://www.w3.org/2000/svg" xmlns:xlink="http://www.w3.org/1999/xlink" xml:space="preserve" xmlns:serif="http://www.serif.com/" style="fill-rule:evenodd;clip-rule:evenodd;stroke-linejoin:round;stroke-miterlimit:2;"><path id="papilon-favourites" d="M55.71,12.03c16.944,0.178 33.278,8.467 44.033,21.6c0,0 5.8,-6.444 11.122,-10.411c23.411,-17.477 61.956,-15.144 78.123,13.334c17.088,30.089 2.955,72.666 -21.589,100.633c-6.256,7.133 -12.645,14.289 -20.556,19.789c-4.389,3.055 -11.833,-0.233 -11.767,-6.233c0.034,-3.345 2.945,-5.867 5.112,-7.745c21.966,-19.189 39.777,-45.078 40.933,-74.533c0.411,-10.6 -1.922,-21.911 -8.989,-29.889c-16.411,-18.522 -51.189,-13.433 -65.7,12.3c0,0 -1.889,3.055 -5.089,3.678c-8.611,1.677 -11.389,-12.845 -23.4,-20.756c-20.967,-13.822 -54.211,-3.689 -58.622,23.489c-3.022,18.678 4.055,38.056 13.344,54.833c1.6,2.823 1.934,3.278 2.934,4.778c16.389,24.5 42.3,42.033 68.155,57.511c0,0 4.378,3.678 3.489,7.956c-1.122,5.366 -6.544,7.711 -13.867,3.278c-28.388,-17.312 -56.855,-37.223 -73.044,-64.912c-13.567,-23.2 -22.111,-51.255 -13.144,-76.233c6.966,-19.4 27.022,-32.522 48.522,-32.467Z"/></svg>