<?xml version="1.0" encoding="UTF-8" standalone="no"?><!DOCTYPE svg PUBLIC "-//W3C//DTD SVG 1.1//EN" "http://www.w3.org/Graphics/SVG/1.1/DTD/svg11.dtd"><svg width="100%" height="100%" viewBox="0 0 200 200" version="1.1" xmlns="http://www.w3.org/2000/svg" xmlns:xlink="http://www.w3.org/1999/xlink" xml:space="preserve" xmlns:serif="http://www.serif.com/" style="fill-rule:evenodd;clip-rule:evenodd;stroke-linejoin:round;stroke-miterlimit:2;"><path d="M68.491,92.886c-8.663,-7.386 -14.706,-17.893 -16.29,-29.202c-2.779,-19.835 8.768,-40.852 27.048,-49.123c6.115,-2.766 12.843,-4.155 19.533,-4.134c21.522,0.205 41.856,16.959 45.703,38.472c2.684,15.009 -2.535,31.251 -13.562,41.891c-0.759,0.732 -1.544,1.435 -2.352,2.109c29.146,9.778 53.785,33.19 63.196,64.07c2.878,9.445 4.291,20.275 -2.697,28.25c-5.319,6.07 -14.188,8.122 -22.654,8.178l-0.262,0.001l-133.989,0c0,0 -5.246,-0.586 -7.162,-4.434c-2.19,-4.399 0.805,-10.517 5.692,-11.43c0.647,-0.121 0.815,-0.106 1.47,-0.136c44.793,0 89.586,0.295 134.378,-0.002c5.75,-0.064 11.952,-0.813 11.599,-7.684c-0.164,-3.19 -1.094,-6.302 -2.088,-9.377c-9.068,-28.052 -34.512,-50.296 -63.816,-55.284c-18.616,-3.168 -38.321,0.338 -54.665,9.852c-16.717,9.732 -29.701,25.38 -36.157,43.915c0,0 -0.131,0.718 -1.009,1.967c-4.206,5.987 -17.48,2.391 -13.951,-7.659c10.09,-28.737 33.95,-50.814 62.035,-60.24Zm29.791,-66.459c-13.947,0.133 -27.088,10.761 -29.91,24.537c-3.941,19.241 14.143,40.559 35.931,36.38c12.436,-2.386 22.843,-13.238 24.614,-25.88c2.397,-17.111 -11.691,-34.861 -30.236,-35.037c-0.133,0 -0.266,0 -0.399,0Z"/></svg>