<?xml version="1.0" encoding="UTF-8" standalone="no"?><!DOCTYPE svg PUBLIC "-//W3C//DTD SVG 1.1//EN" "http://www.w3.org/Graphics/SVG/1.1/DTD/svg11.dtd"><svg width="100%" height="100%" viewBox="0 0 200 200" version="1.1" xmlns="http://www.w3.org/2000/svg" xmlns:xlink="http://www.w3.org/1999/xlink" xml:space="preserve" xmlns:serif="http://www.serif.com/" style="fill-rule:evenodd;clip-rule:evenodd;stroke-linejoin:round;stroke-miterlimit:2;"><path id="papilon-home" d="M172.812,161.606c12.447,3.659 4.2,30.412 -15.353,31.059c-18.953,0.341 -40.047,1.706 -45.553,-14.929c-2.259,-6.847 -0.765,-14.965 -1.106,-22.8c-0.388,-7.188 -14.988,-7.247 -19.118,-5.765c-8.776,3.141 -0.764,21.859 -7.364,32.906c-3.8,6.341 -10.977,10.459 -18.412,10.588c-13.847,0.083 -28.918,2.883 -38.447,-4.976c-4.93,-4.071 -7.871,-10.353 -7.906,-16.765l0,-56.647c-2.471,-0.223 -2.577,-0.365 -3.565,-0.635c-13.212,-3.636 -19.553,-23.047 -8.153,-33.706c25.412,-22.882 51.259,-45.294 76.894,-67.941c7.847,-6.777 20.236,-7.012 28.4,-0.306c25.918,22.376 51.33,45.341 76.989,68.012c11.094,10 5.729,33.082 -11.459,34.576l0,8.918c-0.153,3.259 -1.035,4.388 -2.635,5.788c-4.271,3.694 -12.342,0.765 -12.659,-5.788l0,-10.612c0.094,-7.235 6.553,-13.047 13.964,-13.541c3.447,-0.306 5.495,-5.236 2.706,-7.836c-25.364,-22.858 -50.917,-45.505 -76.764,-67.811c-2.353,-1.941 -5.953,-1.965 -8.33,0c-25.859,22.329 -51.87,44.517 -76.823,67.859c-3.083,3 -0.036,7.035 5.47,8c6.083,1.058 11.012,6.658 11.247,13.047c0.247,19.529 0,39.047 0.012,58.576c0,3.365 2.859,6.341 6.212,6.494c8.294,0.271 16.612,0.353 24.894,-0.012c3.259,-0.176 6.082,-3.058 6.153,-6.376c0.059,-9.4 -1.482,-19.247 3.082,-26.894c3.765,-6.294 10.8,-10.365 18.141,-10.588c7.977,-0.142 16.142,-0.706 22.624,3.353c6.094,3.8 10.023,10.835 10.153,18.141c0.059,10.164 -2.118,22.223 6.388,22.376c8.247,0.059 16.506,0.353 24.741,-0.012c4.918,-0.282 6.13,-8.317 6.13,-8.317c0.223,-4.706 4.588,-8.365 9.447,-7.436Z"/></svg>